# xmcd CD database file
#
# Track frame offsets:
#	150
#	33509
#	60006
#	71060
#	88771
#	112284
#	142778
#	152138
#	173347
#	193692
#	219966
#
# Disc length: 3337 seconds
#
# Revision: 0
# Processed by: cddbd v1.5.2PL0 Copyright (c) Steve Scherf et al.
# Submitted via: CDex 1.51
#
DISCID=8f0d070b
DTITLE=Herbie Hancock - Rock Your Soul
DYEAR=1900
DGENRE=Jazz
TTITLE0=Hot Piano
TTITLE1=Herbie's Blues
TTITLE2=Far Out
TTITLE3=Live And Awake
TTITLE4=Scoochie
TTITLE5=Rock Your Soul
TTITLE6=Afro Boogie
TTITLE7=Night Walker
TTITLE8=Witchfire
TTITLE9=Kamili
TTITLE10=Jammin' With Herbie
EXTD=
EXTT0=
EXTT1=
EXTT2=
EXTT3=
EXTT4=
EXTT5=
EXTT6=
EXTT7=
EXTT8=
EXTT9=
EXTT10=
PLAYORDER=
